<?xml version="1.0" encoding="UTF-8"?>
<svg xmlns="http://www.w3.org/2000/svg" version="1.1" viewBox="0 0 180 180">
  <defs>
    <style>
      .cls-1 {
        fill: rgba(0,0,0,.05);
      }
    </style>
  </defs>
  <!-- Generator: Adobe Illustrator 28.7.1, SVG Export Plug-In . SVG Version: 1.2.0 Build 142)  -->
  <g>
    <g id="Layer_2">
      <g>
        <g>
          <g>
            <g>
              <path class="cls-1" d="M112.1,105.8h-.6v2.3h.6c.6,0,1.1-.5,1.1-1.2s-.5-1.2-1.1-1.2Z"/>
              <path class="cls-1" d="M113.7,103.8h-.2c0,0-16.8-6.9-16.8-6.9.8,8.7,8.1,15.5,17,15.5s16.2-6.8,17-15.5l-17,6.9ZM108.3,108.1c.3,0,.6,0,.8-.3,0,0,.1,0,.1,0l.4.5s0,.1,0,.2c-.4.4-.9.6-1.4.6-1.1,0-2.1-.9-2.1-2.1s.9-2.1,2.1-2.1,1,.2,1.4.5c0,0,0,.1,0,.2l-.4.5s-.1,0-.1,0c-.2-.2-.5-.3-.8-.3-.6,0-1.1.5-1.1,1.2s.5,1.2,1.1,1.2ZM112.2,109h-1.4c0,0-.1,0-.1-.1v-3.8c0,0,0-.1.1-.1h1.4c1.1,0,2,.9,2,2s-.9,2-2,2ZM117.6,108.9c0,0,0,.1-.1.1h-2.2c0,0-.1,0-.1-.1v-3.8c0,0,0-.1.1-.1h.7c0,0,.1,0,.1.1v3.1h1.4c0,0,.1,0,.1.1v.6ZM121.1,105.7c0,0,0,.1-.1.1h-1.6v.7h1.3c0,0,.1,0,.1.1v.6c0,0,0,.1-.1.1h-1.3v.8h1.6c0,0,.1,0,.1.1v.6c0,0,0,.1-.1.1h-2.4c0,0-.1,0-.1-.1v-3.8c0,0,0-.1.1-.1h2.4c0,0,.1,0,.1.1v.6Z"/>
            </g>
            <path class="cls-1" d="M113.7,102.8l-17.1-6.9c0-.2,0-.3,0-.5,0-9.4,7.6-17.1,17.1-17.1s17.1,7.6,17.1,17.1,0,.3,0,.5l-17.1,6.9ZM113.3,82.5l-1.6.7v4.8l1.2-.5,1.8-3.6-1.4-1.4ZM108.3,85.4v3.8l2.5-.9v-4.2l-2.5,1.4ZM105.9,87.3v2.8l1.4-.5v-2.9l-1.4.7ZM115.6,92.1c0,.1,0,.3,0,.4-.2.9-.9,1.5-1.9,1.5s-1.7-.6-1.9-1.5c0-.1,0-.3,0-.4h-5.8v.8c0,0,0,.2.2.2l1.8.3c.2.7.4,1.4.8,2l-.9,1.3c0,0,0,.2,0,.2l1.1,1.1c0,0,.2,0,.2,0l1.3-.9c.6.4,1.3.7,2,.8l.3,1.8c0,0,0,.2.2.2h1.5c0,0,.2,0,.2-.2l.3-1.8c.7-.2,1.4-.4,2-.8l1.3.9c0,0,.2,0,.2,0l1.1-1.1c0,0,0-.2,0-.2l-.9-1.3c.4-.6.7-1.3.8-2l1.8-.3c0,0,.2,0,.2-.2v-.8h-5.8ZM119.3,85.4l-1.4,2.5-1.8-4.6-.6,1.2-1.9,3.8-7.7,2.9h15.5l-2.2-5.7Z"/>
          </g>
          <g>
            <g>
              <g>
                <path class="cls-1" d="M78,93.7l3.5-3,4.7,4.1c0-.9-.3-1.8-.6-2.7-1.3-3.1-4.3-5.2-7.7-5.2s-4.8,1.1-6.4,3h0c-1.2,1.5-1.8,3.3-1.9,5.1l5.1-4.4,3.5,3Z"/>
                <path class="cls-1" d="M68.5,95.3c0-2.2.8-4.3,2.1-5.9h0c1.8-2.2,4.4-3.4,7.2-3.4s7.2,2.3,8.6,5.7c0,0,0,0,0,0,2.3-.9,4.6-1.9,6.9-2.8.2,0,.2-.1.1-.3-.3-.7-.6-1.3-1-1.9,0,0,0-.1,0-.2-3.1-5-7.6-7.8-13.5-8.4-1.7-.2-3.4,0-5,.4-3.9.9-7.1,3-9.7,6.1,0,0-.1.2-.2.3-.4.6-.8,1.1-1.2,1.7,0,0,0,0,0,.1-1.3,2.3-2.1,4.9-2.2,7.6-.1,2.5.3,4.9,1.2,7.2,0,0,0,.2,0,.2l6.7-5.8c0-.2,0-.4,0-.6Z"/>
                <path class="cls-1" d="M69.5,96c.1,1.3.5,2.5,1.2,3.6,0,.1.1.2.2.3l6.6-5.8-2.9-2.6-5.1,4.4Z"/>
                <path class="cls-1" d="M69.8,100.2c-.6-1.1-1.1-2.2-1.2-3.4l-6.5,5.7c.2.5.5,1,.7,1.4,0,0,0,0,0,.1.4.6.8,1.2,1.2,1.8l5.9-5.2c0-.1-.2-.2-.3-.4Z"/>
                <path class="cls-1" d="M93.3,101.6c-2.3-.9-4.5-1.8-6.8-2.8,0,0,0,0,0,0-.3.6-.6,1.2-1,1.8-1.7,2.5-4.6,4-7.7,4s-5.6-1.3-7.3-3.5l-5.9,5.2c.5.6,1,1.1,1.5,1.6,1.3,1.2,2.8,2.2,4.4,2.9,2.1,1,4.3,1.5,6.8,1.6,1.8,0,3.5-.2,5.2-.7,3.3-1,6.1-2.8,8.4-5.5.1-.2.3-.4.4-.5.5-.6.9-1.2,1.3-1.9.3-.6.6-1.2.9-1.9,0,0,0-.1,0-.1h0c0,0,0-.1,0-.1,0,0,0,0-.2-.1Z"/>
                <path class="cls-1" d="M78.5,94.1l6.4,5.6c.3-.4.5-.8.7-1.3.4-.9.5-1.8.6-2.7l-4.7-4.1-2.9,2.6Z"/>
                <path class="cls-1" d="M71.2,100.5c1.6,2,4,3.2,6.6,3.2s5.1-1.3,6.7-3.4l-6.5-5.7-6.7,5.9Z"/>
              </g>
              <path class="cls-1" d="M59.8,95.2c0-4.1,1.4-7.9,3.8-10.9,0-.1-.2-.3-.2-.4-1.4-2.4-2-3.6-3.4-5.8-1.4,2.3-2.1,3.5-3.4,5.9-1.4,2.4-2,3.6-3.4,6.2,1.1-.3,1.7-.4,2.8-.6-.3.7-.4,1.1-.7,1.8-1.6,3.2-3.2,6.5-4.6,9.8,1.1-.4,1.7-.6,2.9-.9-1.5,3.5-2.9,7.1-4.3,10.7,6.6-2.3,12.1-2.6,18.4-.9-4.7-3.2-7.8-8.6-7.8-14.7Z"/>
            </g>
            <g>
              <path class="cls-1" d="M87.7,110.4h-.4s0,0,0,0v-.2s0,0,0,0h1s0,0,0,0v.2s0,0,0,0h-.4v1.3s0,0,0,0h-.2s0,0,0,0v-1.3Z"/>
              <path class="cls-1" d="M89.1,110.1s0,0,0,0h0s0,0,0,0l.5,1.1h0l.5-1.1s0,0,0,0h0s0,0,0,0l.3,1.6s0,0,0,0h-.2s0,0,0,0v-.9h-.1l-.4.9s0,0,0,0h0s0,0,0,0l-.4-.9h0v.9c-.1,0-.2,0-.2,0h-.2s0,0,0,0l.3-1.6Z"/>
            </g>
          </g>
        </g>
        <g>
          <path class="cls-1" d="M151.8,6.5l6.7-5.8c0-.2,0-.4,0-.6s0,0,0,0h-7.9c0,2.2.4,4.3,1.2,6.3,0,0,0,.2,0,.2Z"/>
          <path class="cls-1" d="M160.6,4.4c0,.1.1.2.2.3l5.4-4.7h-5.9l-.9.8c.1,1.3.5,2.5,1.2,3.6Z"/>
          <path class="cls-1" d="M159.8,4.9c-.6-1.1-1.1-2.2-1.2-3.4l-6.5,5.7c.2.5.5,1,.7,1.4,0,0,0,0,0,.1.4.6.8,1.2,1.2,1.8l5.9-5.2c0-.1-.2-.2-.3-.4Z"/>
          <path class="cls-1" d="M176.5,3.6s0,0,0,0c-.3.6-.6,1.2-1,1.8-1.7,2.5-4.6,4-7.7,4s-5.6-1.3-7.3-3.5l-5.9,5.2c.5.6,1,1.1,1.5,1.6,1.3,1.2,2.8,2.2,4.4,2.9,2.1,1,4.3,1.5,6.8,1.6,1.8,0,3.5-.2,5.2-.7,2.9-.9,5.5-2.4,7.5-4.6v-6.9c-1.2-.5-2.4-1-3.5-1.4Z"/>
          <path class="cls-1" d="M175.6,3.2c.4-.9.5-1.8.6-2.7l-.6-.5h-5.9l5.2,4.5c.3-.4.5-.8.7-1.3Z"/>
          <path class="cls-1" d="M167.8,8.5c2.6,0,5.1-1.3,6.7-3.4l-5.8-5.1h-1.4l-6,5.3c1.6,2,4,3.2,6.6,3.2Z"/>
          <path class="cls-1" d="M143.5,5c-1.5,3.5-2.9,7.1-4.3,10.7,6.6-2.3,12.1-2.6,18.4-.9-4.7-3.2-7.8-8.6-7.8-14.7s0,0,0,0h-6.5c-.9,1.9-1.8,3.9-2.7,5.9,1.1-.4,1.7-.6,2.9-.9Z"/>
          <path class="cls-1" d="M177.4,14.9s0,0,0,0v.2s0,0,0,0h.4v1.3s0,0,0,0h.2s0,0,0,0v-1.3h.4s0,0,0,0v-.2s0,0,0,0h-1Z"/>
          <path class="cls-1" d="M179.7,16l-.5-1.1s0,0,0,0h0s0,0,0,0l-.3,1.6s0,0,0,0h.2s0,0,0,0v-.9h.1l.4.9s0,0,0,0h0s0,0,0,0l.2-.4v-.6l-.2.5h0Z"/>
        </g>
        <g>
          <g>
            <path class="cls-1" d="M22.1,10.6h-.6v2.3h.6c.6,0,1.1-.5,1.1-1.2s-.5-1.2-1.1-1.2Z"/>
            <path class="cls-1" d="M23.5,8.5L6.7,1.7c.8,8.7,8.1,15.5,17,15.5s16.2-6.8,17-15.5l-17,6.9h-.2ZM18.3,12.9c.3,0,.6,0,.8-.3,0,0,.1,0,.1,0l.4.5s0,.1,0,.2c-.4.4-.9.6-1.4.6-1.1,0-2.1-.9-2.1-2.1s.9-2.1,2.1-2.1,1,.2,1.4.5c0,0,0,.1,0,.2l-.4.5s-.1,0-.1,0c-.2-.2-.5-.3-.8-.3-.6,0-1.1.5-1.1,1.2s.5,1.2,1.1,1.2ZM28.5,9.9c0,0,0-.1.1-.1h2.4c0,0,.1,0,.1.1v.6c0,0,0,.1-.1.1h-1.6v.7h1.3c0,0,.1,0,.1.1v.6c0,0,0,.1-.1.1h-1.3v.8h1.6c0,0,.1,0,.1.1v.6c0,0,0,.1-.1.1h-2.4c0,0-.1,0-.1-.1v-3.8ZM25.3,9.9c0,0,0-.1.1-.1h.7c0,0,.1,0,.1.1v3.1h1.4c0,0,.1,0,.1.1v.6c0,0,0,.1-.1.1h-2.2c0,0-.1,0-.1-.1v-3.8ZM22.2,13.8h-1.4c0,0-.1,0-.1-.1v-3.8c0,0,0-.1.1-.1h1.4c1.1,0,2,.9,2,2s-.9,2-2,2Z"/>
          </g>
          <path class="cls-1" d="M6.6.6l17.1,6.9L40.7.6c0-.2,0-.3,0-.5s0,0,0-.1h-12s0,0,0,.1l.9,1.3c0,0,0,.2,0,.2l-1.1,1.1c0,0-.2,0-.2,0l-1.3-.9c-.6.4-1.3.7-2,.8l-.3,1.8c0,0,0,.2-.2.2h-1.5c0,0-.2,0-.2-.2l-.3-1.8c-.7-.2-1.4-.4-2-.8l-1.3.9c0,0-.2,0-.2,0l-1.1-1.1c0,0,0-.2,0-.2l.9-1.3s0,0,0-.1H6.6s0,0,0,.1c0,.2,0,.3,0,.5Z"/>
          <path class="cls-1" d="M1.3,10.5c.5-.6.9-1.2,1.3-1.9.3-.6.6-1.2.9-1.9,0,0,0-.1,0-.1h0c0,0,0-.1,0-.1,0,0,0,0-.2-.1-1.1-.4-2.2-.9-3.3-1.3v6.9c.3-.3.6-.6.8-.9.1-.2.3-.4.4-.5Z"/>
          <path class="cls-1" d="M.2,15.6v.9c.1,0,.2,0,.2,0h.2s0,0,0,0l-.3-1.6s0,0,0,0h0s0,0,0,0l-.3.6v.6l.2-.5h0Z"/>
        </g>
        <g>
          <path class="cls-1" d="M167.8,171.7c-2.5,0-4.8,1.1-6.4,3h0c-1.2,1.5-1.8,3.3-1.9,5.1l5.1-4.4,3.5,3,3.5-3,4.7,4.1c0-.9-.3-1.8-.6-2.7-1.3-3.1-4.3-5.2-7.7-5.2Z"/>
          <path class="cls-1" d="M168.9,162.9c-1.7-.2-3.4,0-5,.4-3.9.9-7.1,3-9.7,6.1,0,0-.1.2-.2.3-.4.6-.8,1.1-1.2,1.7,0,0,0,0,0,.1-1.3,2.3-2.1,4.9-2.2,7.6,0,.3,0,.6,0,.9h7.9c0-2.1.8-4.2,2.1-5.9h0c1.8-2.2,4.4-3.4,7.2-3.4s7.2,2.3,8.6,5.7c0,0,0,0,0,0,1.2-.5,2.4-1,3.6-1.4v-6.9c-2.9-3-6.6-4.8-11.1-5.2Z"/>
          <polygon class="cls-1" points="164.5 176.4 160.3 180 166.2 180 167.4 178.9 164.5 176.4"/>
          <polygon class="cls-1" points="168.5 178.9 169.7 180 175.6 180 171.4 176.4 168.5 178.9"/>
          <polygon class="cls-1" points="167.3 180 168.7 180 168 179.4 167.3 180"/>
          <path class="cls-1" d="M153.4,168.6c-1.4-2.4-2-3.6-3.4-5.8-1.4,2.3-2.1,3.5-3.4,5.9-1.4,2.4-2,3.6-3.4,6.2,1.1-.3,1.7-.4,2.8-.6-.3.7-.4,1.1-.7,1.8-.7,1.3-1.3,2.6-1.9,3.9h6.5c0-4.1,1.4-7.9,3.8-10.9,0-.1-.2-.3-.2-.4Z"/>
        </g>
        <g>
          <path class="cls-1" d="M31.3,177.8l-1.8.3c-.1.6-.4,1.3-.8,1.9h12c0-9.4-7.7-16.9-17.1-16.9s-17,7.6-17.1,16.9h12c-.4-.6-.6-1.2-.8-1.9l-1.8-.3c0,0-.2,0-.2-.2v-.8h5.8c0,.1,0,.3,0,.4.2.9.9,1.5,1.9,1.5s1.7-.6,1.9-1.5c0-.1,0-.3,0-.4h5.8v.8c0,0,0,.2-.2.2ZM21.7,167.9l1.6-.7,1.4,1.4-1.8,3.6-1.2.5v-4.8ZM18.3,170.2l2.5-1.4v4.2l-2.5.9v-3.8ZM15.9,172.1l1.4-.7v2.9l-1.4.5v-2.8ZM15.9,175.9l7.7-2.9,1.9-3.8.6-1.2,1.8,4.6,1.4-2.5,2.2,5.7h-15.5Z"/>
          <path class="cls-1" d="M3.5,173.4c-.3-.7-.6-1.3-1-1.9,0,0,0-.1,0-.2-.7-1.2-1.5-2.2-2.4-3.2v6.9c1.1-.5,2.2-.9,3.4-1.4.2,0,.2-.1.1-.3Z"/>
        </g>
      </g>
    </g>
  </g>
</svg>