<?xml version="1.0" encoding="UTF-8"?>
<svg id="Layer_2" xmlns="http://www.w3.org/2000/svg" viewBox="0 0 236.4 99.8">
  <defs>
    <style>
      .cls-1 {
        fill: #737373;
      }
    </style>
  </defs>
  <g id="Layer_1-2" data-name="Layer_1">
    <g>
      <g>
        <g>
          <path class="cls-1" d="M182.37,80.66h-1.6v6.75h1.6c1.88,0,3.25-1.48,3.25-3.38s-1.37-3.37-3.25-3.37Z"/>
          <path class="cls-1" d="M186.9,74.86l-.52-.21-48.76-19.8c2.3,25.21,23.48,44.95,49.28,44.95s46.99-19.75,49.28-44.95l-49.28,20.01ZM171.23,87.37c.78,0,1.63-.28,2.23-.8.12-.1.33-.1.43.02l1.3,1.38c.12.12.1.33-.02.45-1.13,1.1-2.57,1.62-4.05,1.62-3.33,0-6.02-2.65-6.02-5.98s2.68-6.02,6.02-6.02c1.67,0,2.9.52,4.03,1.55.15.13.15.33.02.47l-1.3,1.35c-.12.12-.3.12-.42,0-.62-.55-1.43-.85-2.25-.85-1.88,0-3.27,1.57-3.27,3.43s1.4,3.38,3.28,3.38ZM182.54,89.87h-4.07c-.17,0-.3-.15-.3-.32v-11.03c0-.17.13-.32.3-.32h4.07c3.22,0,5.85,2.62,5.85,5.81s-2.63,5.85-5.85,5.85ZM198.32,89.56c0,.17-.13.32-.32.32h-6.26c-.18,0-.32-.15-.32-.32v-11.03c0-.17.13-.32.32-.32h1.98c.17,0,.32.15.32.32v8.9h3.97c.18,0,.32.15.32.32v1.82ZM208.47,80.34c0,.17-.13.32-.32.32h-4.62v2.07h3.8c.17,0,.32.15.32.32v1.82c0,.18-.15.32-.32.32h-3.8v2.25h4.62c.18,0,.32.15.32.32v1.82c0,.17-.13.32-.32.32h-6.9c-.18,0-.32-.15-.32-.32v-11.03c0-.17.13-.32.32-.32h6.9c.18,0,.32.15.32.32v1.82Z"/>
        </g>
        <path class="cls-1" d="M186.9,71.86l-49.46-20.09c-.01-.49-.04-.98-.04-1.48,0-27.34,22.16-49.5,49.5-49.5s49.5,22.16,49.5,49.5c0,.5-.02.98-.04,1.48l-49.46,20.09ZM185.89,12.94l-4.68,1.97v13.81l3.51-1.32,5.32-10.48-4.15-3.98ZM171.22,21.51v10.96l7.23-2.72v-12.21l-7.23,3.97ZM164.39,26.99v8.05l4.08-1.52v-8.51l-4.08,1.98ZM192.44,40.81c0,.4-.04.79-.14,1.17-.52,2.5-2.74,4.37-5.4,4.37s-4.88-1.87-5.42-4.37c-.1-.38-.14-.77-.14-1.17h-16.95v2.22c0,.24.2.46.44.48l5.1.99c.44,2,1.23,3.95,2.4,5.74l-2.62,3.87c-.16.2-.16.48.02.65l3.14,3.14c.18.18.46.18.64.04l3.89-2.62c1.81,1.19,3.77,2,5.82,2.44l.99,5.1c.02.24.24.44.48.44h4.45c.24,0,.46-.2.48-.44l.99-5.1c2-.44,3.95-1.23,5.74-2.4l3.85,2.62c.2.16.48.14.66-.04l3.14-3.12c.18-.18.2-.46.04-.66l-2.6-3.85c1.19-1.81,1.99-3.79,2.44-5.82l5.1-.99c.24-.02.44-.24.44-.48v-2.22h-16.95ZM203.06,21.42l-3.97,7.25-5.09-13.45-1.84,3.61-5.55,10.9-22.21,8.33h45l-6.33-16.64Z"/>
      </g>
      <g>
        <g>
          <g>
            <path class="cls-1" d="M83.3,45.45l10.07-8.77,13.71,11.99c-.16-2.72-.77-5.35-1.82-7.85-3.78-9.09-12.58-14.96-22.42-14.96-7.24,0-14.04,3.19-18.67,8.75l-.12.14c-3.41,4.14-5.35,9.38-5.49,14.79l14.71-12.86,10.04,8.77Z"/>
            <path class="cls-1" d="M55.73,50.17c0-6.28,2.2-12.4,6.19-17.24l.13-.14c5.12-6.16,12.71-9.71,20.78-9.71,10.98,0,20.79,6.54,25,16.67,0,0,0,0,0,.01,6.72-2.72,13.42-5.43,20.14-8.13.45-.19.58-.32.35-.83-.82-1.91-1.78-3.79-2.77-5.64-.09-.16-.19-.32-.29-.45C116.19,10.12,103.09,2.03,85.98.44c-4.91-.45-9.78,0-14.59,1.14-11.37,2.68-20.71,8.61-28,17.75-.21.27-.41.55-.62.82-1.21,1.61-2.3,3.29-3.37,5.01-.06.1-.09.22-.12.32-3.86,6.79-6.03,14.11-6.44,21.92-.35,7.17.77,14.08,3.38,20.77.09.23.18.45.27.67l19.31-16.89c-.04-.55-.06-1.14-.06-1.79Z"/>
            <path class="cls-1" d="M58.62,52.14c.3,3.73,1.47,7.38,3.4,10.58.19.3.36.57.52.81l19.24-16.76-8.51-7.44-14.64,12.81Z"/>
            <path class="cls-1" d="M59.67,64.23c-1.84-3.05-3.05-6.42-3.59-9.87l-18.74,16.39c.64,1.39,1.33,2.76,2.07,4.1.07.1.16.22.23.32,1.08,1.83,2.28,3.56,3.56,5.22l17.23-15.01c-.24-.35-.48-.72-.75-1.15Z"/>
            <path class="cls-1" d="M127.72,68.3c-6.59-2.67-13.18-5.32-19.78-7.98,0,0,0,0,0,0-.73,1.83-1.69,3.6-2.84,5.25-5.06,7.32-13.39,11.69-22.28,11.69-8.26,0-16.1-3.82-21.21-10.27l-17.19,14.98c1.38,1.65,2.86,3.22,4.47,4.68,3.91,3.53,8.12,6.34,12.61,8.44,6.05,2.82,12.61,4.36,19.69,4.59,5.13.19,10.17-.48,15.11-1.94,9.65-2.84,17.74-8.13,24.27-15.81.43-.51.85-1.03,1.26-1.56,1.34-1.75,2.56-3.6,3.71-5.51.96-1.75,1.88-3.53,2.65-5.38.06-.19.12-.32.16-.42l.06-.16-.06-.25c-.1-.13-.29-.19-.64-.35Z"/>
            <path class="cls-1" d="M84.82,46.78l18.61,16.26c.76-1.21,1.41-2.46,1.93-3.77,1.03-2.53,1.59-5.21,1.72-7.96l-13.71-11.98-8.54,7.45Z"/>
            <path class="cls-1" d="M63.72,65.16c4.59,5.84,11.66,9.31,19.11,9.31s14.87-3.64,19.45-9.77l-18.99-16.6-19.57,17.06Z"/>
          </g>
          <path class="cls-1" d="M30.75,49.94c0-11.96,4.09-22.97,10.94-31.74-.23-.41-.46-.83-.71-1.27-3.95-7.03-5.94-10.41-9.91-16.93-3.97,6.64-5.96,10.08-9.91,17.22-3.95,6.9-5.92,10.48-9.8,17.89,3.19-.83,4.81-1.16,8.06-1.65-.83,2.03-1.24,3.05-2.06,5.1-4.7,9.32-9.17,18.79-13.38,28.34,3.3-1.22,4.98-1.73,8.37-2.57-4.25,10.28-8.35,20.57-12.33,30.95,19.02-6.56,35.02-7.48,53.29-2.68-13.6-9.32-22.55-24.96-22.55-42.66Z"/>
        </g>
        <g>
          <path class="cls-1" d="M111.63,93.93h-1.06c-.08,0-.13-.06-.13-.13v-.57c0-.07.06-.13.13-.13h3.03c.08,0,.13.06.13.13v.57c0,.07-.06.13-.13.13h-1.06v3.9c0,.07-.06.13-.13.13h-.64c-.07,0-.13-.06-.13-.13v-3.9Z"/>
          <path class="cls-1" d="M115.57,93.14c0-.06.05-.1.12-.1h.11c.06,0,.1.03.12.07l1.53,3.28h.02l1.53-3.28s.05-.07.12-.07h.11c.08,0,.12.05.12.1l.82,4.66c.02.1-.03.16-.12.16h-.63c-.06,0-.12-.06-.13-.1l-.41-2.63h-.02l-1.21,2.73s-.05.08-.12.08h-.12c-.06,0-.1-.03-.12-.08l-1.23-2.73h-.02l-.4,2.63s-.06.1-.12.1h-.62c-.09,0-.15-.06-.13-.16l.83-4.66Z"/>
        </g>
      </g>
    </g>
  </g>
</svg>