<?xml version="1.0" encoding="UTF-8"?>
<svg id="Layer_2" xmlns="http://www.w3.org/2000/svg" viewBox="0 0 577.9 106.72">
  <defs>
    <style>
      .cls-1 {
        fill: #ffd100;
      }

      .cls-2 {
        fill: #245d38;
      }

      .cls-3 {
        fill: #6d3a5d;
      }

      .cls-4 {
        fill: #001970;
      }

      .cls-5 {
        fill: #35647e;
      }

      .cls-6 {
        fill: #fff;
      }

      .cls-7 {
        fill: #c3002f;
      }

      .cls-8 {
        fill: #7a853b;
      }
    </style>
  </defs>
  <g id="Layer_1-2" data-name="Layer_1">
    <g>
      <g>
        <path class="cls-6" d="M268.21,69.4h2.29v-13.85h-2.29v-2.67h8.29c1.54,0,2.75.08,4,.46,3.72,1.11,6.21,4.4,6.21,9.12s-2.29,7.8-5.94,9.02c-1.3.46-2.65.57-4.24.57h-8.31v-2.65ZM276.37,69.22c1.21,0,2.19-.11,3.13-.49,2.19-.89,3.56-3.13,3.56-6.26s-1.46-5.45-3.7-6.32c-.97-.38-1.86-.43-3-.43h-2.32v13.5h2.32Z"/>
        <path class="cls-6" d="M295.62,57.96c3.97,0,6.13,2.89,6.13,6.53,0,.4-.08,1.16-.08,1.16h-9.53c.22,2.54,2.05,3.83,4.13,3.83,2.24,0,4-1.46,4-1.46l1.32,2.43s-2.11,1.92-5.56,1.92c-4.56,0-7.4-3.29-7.4-7.21,0-4.24,2.86-7.21,6.99-7.21ZM298.21,63.63c-.05-1.89-1.21-3.02-2.67-3.02-1.75,0-3,1.21-3.32,3.02h5.99Z"/>
        <path class="cls-6" d="M305.39,74.88v-13.44c0-.38-.22-.59-.59-.59h-1.54v-2.56h3.54c1.27,0,1.7.59,1.7,1.3v.08c0,.32-.03.62-.03.62h.05s1.19-2.32,4.43-2.32c3.73,0,6.1,2.94,6.1,7.21s-2.67,7.21-6.29,7.21c-2.73,0-3.97-1.94-3.97-1.94h-.05s.08.49.08,1.19v3.27h2v2.56h-7.42v-2.56h2ZM312.14,69.49c1.89,0,3.46-1.54,3.46-4.26s-1.4-4.32-3.43-4.32c-1.78,0-3.46,1.3-3.46,4.35,0,2.13,1.19,4.24,3.43,4.24Z"/>
        <path class="cls-6" d="M328.26,63.55h.86v-.46c0-1.75-1.11-2.38-2.54-2.38-2.05,0-3.89,1.32-3.89,1.32l-1.27-2.38s2.13-1.7,5.45-1.7c3.7,0,5.67,1.92,5.67,5.42v5.51c0,.41.22.59.59.59h1.24v2.56h-3.24c-1.27,0-1.75-.67-1.75-1.46v-.16c0-.43.08-.7.08-.7h-.05s-1.16,2.65-4.35,2.65c-2.35,0-4.56-1.38-4.56-4.18,0-4.21,5.53-4.64,7.75-4.64ZM325.97,69.81c1.86,0,3.18-2,3.18-3.73v-.46h-.57c-1.35,0-4.62.22-4.62,2.29,0,1.03.73,1.89,2,1.89Z"/>
        <path class="cls-6" d="M335.98,69.49h2v-8.04c0-.38-.22-.59-.59-.59h-1.54v-2.56h3.59c1.21,0,1.83.51,1.83,1.67v.81c0,.51-.05.86-.05.86h.05c.62-1.97,2.27-3.54,4.37-3.54.32,0,.62.05.62.05v3.37s-.35-.05-.84-.05c-2.78,0-4.02,2.43-4.02,5.02v3h1.97v2.56h-7.4v-2.56Z"/>
        <path class="cls-6" d="M349.13,60.85h-2.11v-2.56h2.21v-3.75h3.32v3.75h3.13v2.56h-3.13v5.8c0,2.35,1.78,2.67,2.75,2.67.38,0,.62-.03.62-.03v2.81s-.43.08-1.05.08c-1.94,0-5.75-.57-5.75-5.18v-6.15Z"/>
        <path class="cls-6" d="M357.75,69.49h2v-8.07c0-.38-.22-.57-.59-.57h-1.54v-2.56h3.59c1.21,0,1.81.57,1.81,1.54v.62c0,.3-.05.59-.05.59h.05c.7-1.4,2.43-3.08,4.7-3.08,1.92,0,3.29.89,3.83,3h.05c.76-1.62,2.59-3,4.78-3,2.78,0,4.43,1.62,4.43,5.24v6.29h2v2.56h-5.43v-8.21c0-1.57-.3-2.75-1.89-2.75-2.35,0-3.51,2.35-3.51,4.89v3.51h2v2.56h-5.4v-8.21c0-1.48-.24-2.75-1.86-2.75-2.43,0-3.54,2.56-3.54,5.05v3.35h1.97v2.56h-7.4v-2.56Z"/>
        <path class="cls-6" d="M391.09,57.96c3.97,0,6.13,2.89,6.13,6.53,0,.4-.08,1.16-.08,1.16h-9.53c.22,2.54,2.05,3.83,4.13,3.83,2.24,0,4-1.46,4-1.46l1.32,2.43s-2.11,1.92-5.56,1.92c-4.56,0-7.4-3.29-7.4-7.21,0-4.24,2.86-7.21,6.99-7.21ZM393.68,63.63c-.05-1.89-1.21-3.02-2.67-3.02-1.75,0-3,1.21-3.32,3.02h5.99Z"/>
        <path class="cls-6" d="M399.19,69.49h2v-8.04c0-.38-.22-.59-.59-.59h-1.54v-2.56h3.62c1.21,0,1.78.57,1.78,1.54v.62c0,.3-.05.59-.05.59h.05c.16-.43,1.62-3.08,5.08-3.08,2.94,0,4.62,1.59,4.62,5.24v6.29h2v2.56h-5.4v-8.15c0-1.67-.46-2.81-2.19-2.81-2.48,0-3.94,2.38-3.94,4.78v3.62h1.97v2.56h-7.4v-2.56Z"/>
        <path class="cls-6" d="M419.14,60.85h-2.11v-2.56h2.21v-3.75h3.32v3.75h3.13v2.56h-3.13v5.8c0,2.35,1.78,2.67,2.75,2.67.38,0,.62-.03.62-.03v2.81s-.43.08-1.05.08c-1.94,0-5.75-.57-5.75-5.18v-6.15Z"/>
        <path class="cls-6" d="M441.47,57.96c4.21,0,7.58,3,7.58,7.21s-3.37,7.21-7.56,7.21-7.58-2.97-7.58-7.21,3.37-7.21,7.56-7.21ZM441.5,69.46c2.21,0,4.08-1.73,4.08-4.29s-1.86-4.29-4.08-4.29-4.1,1.75-4.1,4.29,1.86,4.29,4.1,4.29Z"/>
        <path class="cls-6" d="M450.95,69.49h2v-8.64h-2.13v-2.56h2.13v-.62c0-4.45,3.56-5.02,5.4-5.02.81,0,1.4.11,1.4.11v2.75s-.35-.08-1.05-.08c-.78,0-2.32.16-2.32,2.16v.7h3.1v2.56h-3.1v8.64h2.32v2.56h-7.75v-2.56Z"/>
        <path class="cls-6" d="M268.24,98.4h2.29v-13.69h-2.29v-2.83h8.15v2.83h-2.32v13.5h5.67v-2.97h3.02v5.8h-14.52v-2.65Z"/>
        <path class="cls-6" d="M291.68,92.55h.86v-.46c0-1.75-1.11-2.38-2.54-2.38-2.05,0-3.89,1.32-3.89,1.32l-1.27-2.38s2.13-1.7,5.45-1.7c3.7,0,5.67,1.92,5.67,5.42v5.51c0,.41.22.59.59.59h1.24v2.56h-3.24c-1.27,0-1.75-.67-1.75-1.46v-.16c0-.43.08-.7.08-.7h-.05s-1.16,2.65-4.35,2.65c-2.35,0-4.56-1.38-4.56-4.18,0-4.21,5.53-4.64,7.75-4.64ZM289.38,98.81c1.86,0,3.19-2,3.19-3.73v-.46h-.57c-1.35,0-4.62.22-4.62,2.29,0,1.03.73,1.89,2,1.89Z"/>
        <path class="cls-6" d="M300.29,84.45h-2.11v-2.56h5.53v5.97c0,.67-.05,1.16-.05,1.16h.05s1.24-2.05,4.13-2.05c3.72,0,6.13,2.94,6.13,7.21s-2.7,7.21-6.34,7.21c-3,0-4.1-2.19-4.1-2.19h-.05s.05.49.05,1.03v.84h-3.24v-16.6ZM307.04,98.49c1.89,0,3.48-1.54,3.48-4.26s-1.4-4.32-3.43-4.32c-1.78,0-3.46,1.3-3.46,4.35,0,2.13,1.11,4.24,3.4,4.24Z"/>
        <path class="cls-6" d="M323.16,86.96c4.21,0,7.58,3,7.58,7.21s-3.37,7.21-7.56,7.21-7.58-2.97-7.58-7.21,3.37-7.21,7.56-7.21ZM323.18,98.46c2.21,0,4.08-1.73,4.08-4.29s-1.86-4.29-4.08-4.29-4.1,1.75-4.1,4.29,1.86,4.29,4.1,4.29Z"/>
        <path class="cls-6" d="M332.64,98.49h2v-8.04c0-.38-.22-.59-.59-.59h-1.54v-2.56h3.59c1.21,0,1.83.51,1.83,1.67v.81c0,.51-.05.86-.05.86h.05c.62-1.97,2.27-3.54,4.37-3.54.32,0,.62.05.62.05v3.37s-.35-.05-.84-.05c-2.78,0-4.02,2.43-4.02,5.02v3h1.97v2.56h-7.4v-2.56Z"/>
        <path class="cls-6" d="M358.12,92.55h.86v-.46c0-1.75-1.11-2.38-2.54-2.38-2.05,0-3.89,1.32-3.89,1.32l-1.27-2.38s2.13-1.7,5.45-1.7c3.7,0,5.67,1.92,5.67,5.42v5.51c0,.41.22.59.59.59h1.24v2.56h-3.24c-1.27,0-1.75-.67-1.75-1.46v-.16c0-.43.08-.7.08-.7h-.05s-1.16,2.65-4.35,2.65c-2.35,0-4.56-1.38-4.56-4.18,0-4.21,5.53-4.64,7.75-4.64ZM355.83,98.81c1.86,0,3.19-2,3.19-3.73v-.46h-.57c-1.35,0-4.62.22-4.62,2.29,0,1.03.73,1.89,2,1.89Z"/>
        <path class="cls-6" d="M365.84,98.49h2v-8.04c0-.38-.22-.59-.59-.59h-1.54v-2.56h3.62c1.21,0,1.78.57,1.78,1.54v.62c0,.3-.05.59-.05.59h.05c.16-.43,1.62-3.08,5.08-3.08,2.94,0,4.62,1.59,4.62,5.24v6.29h2v2.56h-5.4v-8.15c0-1.67-.46-2.81-2.19-2.81-2.48,0-3.94,2.38-3.94,4.78v3.62h1.97v2.56h-7.4v-2.56Z"/>
        <path class="cls-6" d="M390.41,86.96c2.94,0,3.97,1.94,3.97,1.94h.05s-.05-.41-.05-.97v-3.48h-2.13v-2.56h5.53v16.01c0,.41.22.59.59.59h1.24v2.56h-3.24c-1.24,0-1.75-.67-1.75-1.46v-.16c0-.38.08-.62.08-.62h-.05s-1.08,2.56-4.51,2.56c-3.67,0-6.02-2.94-6.02-7.21s2.56-7.21,6.29-7.21ZM390.98,98.49c1.81,0,3.48-1.3,3.48-4.24,0-2.24-1.11-4.35-3.37-4.35-1.94,0-3.51,1.54-3.51,4.27s1.4,4.32,3.4,4.32Z"/>
        <path class="cls-6" d="M408.02,98.4h2.29v-13.85h-2.29v-2.67h14.22v4.94h-3.02v-2.11h-5.37v5.26h6.32v2.83h-6.32v5.4h5.78v-2.16h3.02v4.99h-14.63v-2.65Z"/>
        <path class="cls-6" d="M424.92,98.49h2v-8.07c0-.38-.22-.57-.59-.57h-1.54v-2.56h3.59c1.21,0,1.81.57,1.81,1.54v.62c0,.3-.05.59-.05.59h.05c.7-1.4,2.43-3.08,4.7-3.08,1.92,0,3.29.89,3.83,3h.05c.76-1.62,2.59-3,4.78-3,2.78,0,4.43,1.62,4.43,5.24v6.29h2v2.56h-5.43v-8.21c0-1.57-.3-2.75-1.89-2.75-2.35,0-3.51,2.35-3.51,4.89v3.51h2v2.56h-5.4v-8.21c0-1.48-.24-2.75-1.86-2.75-2.43,0-3.54,2.56-3.54,5.05v3.35h1.97v2.56h-7.4v-2.56Z"/>
        <path class="cls-6" d="M453.24,103.88v-13.44c0-.38-.22-.59-.59-.59h-1.54v-2.56h3.54c1.27,0,1.7.59,1.7,1.3v.08c0,.32-.03.62-.03.62h.05s1.19-2.32,4.43-2.32c3.73,0,6.1,2.94,6.1,7.21s-2.67,7.21-6.29,7.21c-2.73,0-3.97-1.94-3.97-1.94h-.05s.08.49.08,1.19v3.27h2v2.56h-7.42v-2.56h2ZM459.99,98.49c1.89,0,3.46-1.54,3.46-4.26s-1.4-4.32-3.43-4.32c-1.78,0-3.46,1.3-3.46,4.35,0,2.13,1.19,4.24,3.43,4.24Z"/>
        <path class="cls-6" d="M469.63,84.45h-2.13v-2.56h5.53v14.58c0,1.24.27,1.89,1.4,1.89.38,0,.65-.03.65-.03v2.75s-.57.08-1.24.08c-2.19,0-4.21-.73-4.21-4.48v-12.23Z"/>
        <path class="cls-6" d="M484.13,86.96c4.21,0,7.58,3,7.58,7.21s-3.37,7.21-7.56,7.21-7.58-2.97-7.58-7.21,3.37-7.21,7.56-7.21ZM484.16,98.46c2.21,0,4.08-1.73,4.08-4.29s-1.86-4.29-4.08-4.29-4.1,1.75-4.1,4.29,1.86,4.29,4.1,4.29Z"/>
        <path class="cls-6" d="M496.2,103.91c1.11,0,2-.59,2.43-1.59l.38-.86-4.72-11.61h-1.65v-2.56h6.77v2.56h-1.62l2.51,6.96c.24.67.3,1.43.3,1.43h.08s.11-.76.38-1.43l2.48-6.96h-1.59v-2.56h6.5v2.56h-1.57l-5.08,12.98c-1.05,2.73-3.1,3.89-5.45,3.89-2,0-3.35-.95-3.35-.95l1.11-2.51s.81.65,2.08.65Z"/>
        <path class="cls-6" d="M509.7,98.49h2v-8.07c0-.38-.22-.57-.59-.57h-1.54v-2.56h3.59c1.21,0,1.81.57,1.81,1.54v.62c0,.3-.05.59-.05.59h.05c.7-1.4,2.43-3.08,4.7-3.08,1.92,0,3.29.89,3.83,3h.05c.76-1.62,2.59-3,4.78-3,2.78,0,4.43,1.62,4.43,5.24v6.29h2v2.56h-5.43v-8.21c0-1.57-.3-2.75-1.89-2.75-2.35,0-3.51,2.35-3.51,4.89v3.51h2v2.56h-5.4v-8.21c0-1.48-.24-2.75-1.86-2.75-2.43,0-3.54,2.56-3.54,5.05v3.35h1.97v2.56h-7.4v-2.56Z"/>
        <path class="cls-6" d="M543.04,86.96c3.97,0,6.13,2.89,6.13,6.53,0,.4-.08,1.16-.08,1.16h-9.53c.22,2.54,2.05,3.83,4.13,3.83,2.24,0,4-1.46,4-1.46l1.32,2.43s-2.11,1.92-5.56,1.92c-4.56,0-7.4-3.29-7.4-7.21,0-4.24,2.86-7.21,6.99-7.21ZM545.63,92.63c-.05-1.89-1.21-3.02-2.67-3.02-1.75,0-3,1.21-3.32,3.02h5.99Z"/>
        <path class="cls-6" d="M551.14,98.49h2v-8.04c0-.38-.22-.59-.59-.59h-1.54v-2.56h3.62c1.21,0,1.78.57,1.78,1.54v.62c0,.3-.05.59-.05.59h.05c.16-.43,1.62-3.08,5.08-3.08,2.94,0,4.62,1.59,4.62,5.24v6.29h2v2.56h-5.4v-8.15c0-1.67-.46-2.81-2.19-2.81-2.48,0-3.94,2.38-3.94,4.78v3.62h1.97v2.56h-7.4v-2.56Z"/>
        <path class="cls-6" d="M571.1,89.85h-2.11v-2.56h2.21v-3.75h3.32v3.75h3.13v2.56h-3.13v5.8c0,2.35,1.78,2.67,2.75,2.67.38,0,.62-.03.62-.03v2.81s-.43.08-1.05.08c-1.94,0-5.75-.57-5.75-5.18v-6.15Z"/>
      </g>
      <g>
        <path class="cls-6" d="M282.76,7.97c1.95,0,3.9.71,5.37,2.03.28.28.72.28,1,0l3.1-3.22c.32-.32.32-.79-.04-1.12-2.7-2.45-5.64-3.69-9.62-3.69-7.96,0-14.35,6.4-14.35,14.35s6.4,14.27,14.35,14.27c3.54,0,6.96-1.23,9.66-3.86.28-.28.32-.79.04-1.08l-3.1-3.3c-.24-.28-.76-.28-1.04-.04-1.43,1.23-3.46,1.91-5.33,1.91-4.49,0-7.84-3.66-7.84-8.08s3.3-8.19,7.8-8.19"/>
        <path class="cls-6" d="M317.94,1.96c-7.95,0-14.27,6.4-14.27,14.36s6.32,14.27,14.27,14.27,14.31-6.32,14.31-14.27-6.36-14.36-14.31-14.36M317.94,24.23c-4.33,0-7.91-3.58-7.91-7.92s3.58-7.99,7.91-7.99,7.95,3.62,7.95,7.99-3.57,7.92-7.95,7.92"/>
        <path class="cls-6" d="M361.36,24.35h-9.59V3.12c0-.41-.36-.76-.75-.76h-4.74c-.44,0-.75.35-.75.76v26.32c0,.4.31.75.75.75h15.08c.44,0,.76-.36.76-.75v-4.33c0-.4-.32-.75-.76-.75"/>
        <path class="cls-6" d="M387.33,1.96c-7.96,0-14.28,6.4-14.28,14.36s6.32,14.27,14.28,14.27,14.32-6.32,14.32-14.27-6.36-14.36-14.32-14.36M387.33,24.23c-4.34,0-7.92-3.58-7.92-7.92s3.58-7.99,7.92-7.99,7.96,3.62,7.96,7.99-3.58,7.92-7.96,7.92"/>
        <path class="cls-6" d="M431.16,18.94c3.46-1.4,5.88-4.34,5.88-8,0-4.73-3.9-8.59-8.66-8.59h-11.9c-.45,0-.76.35-.76.75v26.32c0,.4.31.75.76.75h4.73c.39,0,.76-.36.76-.75v-10.14h2.74l5.68,10.53c.07.16.32.36.63.36h5.29c.68,0,.95-.63.68-1.15l-5.84-10.1ZM427.86,14.25h-5.88v-6.2h5.88c1.63,0,3.02,1.35,3.02,3.02s-1.39,3.18-3.02,3.18"/>
        <path class="cls-6" d="M501.21,2.36h-9.7c-.39,0-.72.35-.72.75v26.32c0,.4.32.75.72.75h9.7c7.67,0,13.95-6.24,13.95-13.96s-6.28-13.87-13.95-13.87M500.81,24.3h-3.82V8.2h3.82c4.49,0,7.75,3.53,7.75,8.03s-3.27,8.07-7.75,8.07"/>
        <path class="cls-6" d="M541.9,1.96c-7.96,0-14.28,6.4-14.28,14.36s6.32,14.27,14.28,14.27,14.31-6.32,14.31-14.27-6.36-14.36-14.31-14.36M541.9,24.23c-4.34,0-7.92-3.58-7.92-7.92s3.58-7.99,7.92-7.99,7.95,3.62,7.95,7.99-3.58,7.92-7.95,7.92"/>
        <path class="cls-6" d="M464.51,2.4c-.12-.24-.39-.44-.67-.44h-.4c-.28,0-.56.2-.68.44l-12.45,26.75c-.24.52.08,1.04.68,1.04h4.37c.79,0,1.15-.24,1.43-.95l1.43-3.18h10.84l1.43,3.14c.4.86.57.99,1.39.99h4.41c.6,0,.92-.51.68-1.04l-12.45-26.75ZM460,21.34l3.62-8.34,3.66,8.34h-7.28Z"/>
      </g>
      <rect class="cls-6" x="250.9" y="2.07" width="1.3" height="99"/>
      <g>
        <path class="cls-6" d="M186.13,101.21c-27.11,0-49.16-22.05-49.16-49.16S159.02,2.88,186.13,2.88s49.16,22.05,49.16,49.16-22.05,49.16-49.16,49.16Z"/>
        <g>
          <g>
            <g>
              <path class="cls-7" d="M232.62,53.43c.01-.46.04-.92.04-1.39,0-25.7-20.83-46.53-46.53-46.53s-46.53,20.83-46.53,46.53c0,.47.02.93.04,1.39l46.49,18.88,46.49-18.88Z"/>
              <path class="cls-4" d="M186.13,75.13l-.49-.2-45.84-18.61c2.16,23.69,22.07,42.26,46.33,42.26s44.17-18.56,46.33-42.26l-46.33,18.81Z"/>
            </g>
            <g>
              <path class="cls-6" d="M171.3,78.13c1.57,0,2.72.49,3.79,1.46.14.13.14.31.02.44l-1.22,1.27c-.11.11-.28.11-.39,0-.58-.52-1.35-.8-2.11-.8-1.77,0-3.07,1.47-3.07,3.23s1.32,3.18,3.09,3.18c.74,0,1.53-.27,2.1-.75.11-.09.31-.09.41.02l1.22,1.3c.11.11.09.31-.02.42-1.07,1.03-2.41,1.52-3.81,1.52-3.13,0-5.65-2.49-5.65-5.62s2.52-5.65,5.65-5.65Z"/>
              <path class="cls-6" d="M177.93,78.58c0-.16.12-.3.28-.3h3.82c3.02,0,5.5,2.46,5.5,5.47s-2.47,5.5-5.5,5.5h-3.82c-.16,0-.28-.14-.28-.3v-10.37ZM181.87,86.93c1.77,0,3.06-1.39,3.06-3.18s-1.29-3.16-3.06-3.16h-1.5v6.34h1.5Z"/>
              <path class="cls-6" d="M190.38,78.58c0-.16.12-.3.3-.3h1.86c.16,0,.3.14.3.3v8.36h3.73c.17,0,.3.14.3.3v1.71c0,.16-.13.3-.3.3h-5.89c-.17,0-.3-.14-.3-.3v-10.37Z"/>
              <path class="cls-6" d="M199.32,78.58c0-.16.12-.3.3-.3h6.48c.17,0,.3.14.3.3v1.71c0,.16-.13.3-.3.3h-4.34v1.94h3.57c.16,0,.3.14.3.3v1.71c0,.17-.14.3-.3.3h-3.57v2.11h4.34c.17,0,.3.14.3.3v1.71c0,.16-.13.3-.3.3h-6.48c-.17,0-.3-.14-.3-.3v-10.37Z"/>
            </g>
          </g>
          <g>
            <polygon class="cls-6" points="189.08 20.67 184.07 30.53 180.77 31.77 180.77 18.79 185.17 16.93 189.08 20.67"/>
            <polygon class="cls-6" points="178.19 21.26 178.19 32.74 171.39 35.29 171.39 24.99 178.19 21.26"/>
            <polygon class="cls-6" points="168.8 28.27 168.8 36.27 164.97 37.71 164.97 30.14 168.8 28.27"/>
            <path class="cls-6" d="M191.33,43.13c0,.37-.04.75-.13,1.1-.49,2.35-2.57,4.11-5.08,4.11s-4.59-1.75-5.09-4.11c-.09-.35-.13-.73-.13-1.1h-15.93v2.09c0,.22.19.43.41.45l4.8.93c.41,1.88,1.16,3.71,2.26,5.39l-2.46,3.64c-.15.19-.15.45.02.62l2.95,2.95c.17.17.43.17.6.04l3.66-2.46c1.7,1.12,3.55,1.88,5.47,2.3l.93,4.8c.02.22.22.41.45.41h4.18c.22,0,.43-.19.45-.41l.93-4.8c1.88-.41,3.71-1.16,5.39-2.26l3.62,2.46c.19.15.45.13.62-.04l2.95-2.93c.17-.17.19-.43.04-.62l-2.44-3.62c1.12-1.7,1.87-3.56,2.3-5.47l4.8-.93c.22-.02.41-.22.41-.45v-2.09h-15.93Z"/>
            <polygon class="cls-6" points="207.27 40.54 164.97 40.54 185.85 32.72 191.07 22.47 192.79 19.07 197.58 31.72 201.31 24.9 207.27 40.54"/>
          </g>
        </g>
      </g>
      <g>
        <g>
          <path class="cls-6" d="M127.3,68.31l-.35-.45c-.48-.62-1.08-.88-1.43-1.04l-.26-.11c-4.06-1.65-8.11-3.28-12.17-4.91l-6.5-2.62c.66-2.27.99-4.63.99-7.03v-.16c-.02-2.45-.38-4.84-1.07-7.13l.09-.04c6.3-2.55,12.58-5.09,18.92-7.64.34-.14,1.38-.58,1.84-1.76.31-.79.26-1.64-.12-2.48-.87-2.04-1.9-4.01-2.72-5.54-.12-.21-.25-.42-.39-.61-8.92-14.3-21.97-22.34-38.78-23.91-1.25-.11-2.53-.17-3.79-.17-3.48,0-7.09.44-10.73,1.3-10.24,2.41-18.92,7.56-25.83,15.33-3.52-6.26-5.35-9.39-9.15-15.61l-2.27-3.72-2.24,3.74c-3.86,6.45-5.69,9.63-9.32,16.19-3.83,6.7-5.65,10.01-9.24,16.87l-2.76,5.27,5.75-1.5c1.03-.27,1.87-.48,2.66-.66-.03.08-.07.17-.1.25-4.4,8.74-8.63,17.69-12.55,26.61l-2.5,5.68,5.82-2.15c.93-.34,1.71-.62,2.44-.87-3.24,7.93-6.44,16.01-9.53,24.07l-2.03,5.28,5.34-1.84c10.3-3.55,19.28-5.21,28.24-5.21s17.57,1.58,27.61,4.99c5.94,2.75,12.45,4.26,19.35,4.49.57.02,1.13.03,1.7.03h0c4.44,0,8.92-.66,13.31-1.96,9.49-2.79,17.57-8.06,24.03-15.66.43-.51.84-1.02,1.26-1.56,1.22-1.59,2.41-3.36,3.64-5.41l.05-.09c.78-1.41,1.77-3.3,2.61-5.3l.05-.11.04-.11.09-.21.36-.95-.37-1.57Z"/>
          <g>
            <path class="cls-2" d="M45.56,81.26c-1.44-1.78-2.74-3.68-3.91-5.66-.07-.09-.15-.21-.22-.3-.85-1.57-1.67-3.15-2.38-4.79-.21-.49-.41-.98-.6-1.48-2.45-6.27-3.5-12.76-3.17-19.48.38-7.32,2.42-14.19,6.04-20.56.03-.09.06-.21.11-.3,1-1.61,2.03-3.19,3.16-4.7-.52-.94-1.08-1.93-1.69-3.01-3.7-6.59-5.57-9.77-9.29-15.88-3.73,6.22-5.59,9.45-9.29,16.15-3.71,6.48-5.56,9.83-9.19,16.78,3-.78,4.51-1.09,7.56-1.55-.78,1.9-1.16,2.86-1.93,4.78-4.4,8.74-8.6,17.63-12.54,26.58,3.1-1.14,4.67-1.62,7.85-2.41-3.98,9.64-7.83,19.29-11.57,29.02,20.46-7.06,37.19-7.15,57.69-.18-4.22-1.97-8.16-4.6-11.83-7.91-1.74-1.58-3.32-3.28-4.78-5.09Z"/>
            <path class="cls-1" d="M82.17,29.35c-6.79,0-13.17,2.99-17.51,8.2l-.12.13c-3.32,4.03-5.17,9.18-5.17,14.46,0,.22,0,.43.01.64l13.81-12.04,9.43,8.23,9.43-8.23,12.91,11.26c-.02-3-.61-5.9-1.75-8.62-3.54-8.52-11.8-14.03-21.03-14.03Z"/>
            <path class="cls-7" d="M41.33,28.99c-3.62,6.37-5.66,13.23-6.04,20.56-.33,6.72.72,13.21,3.17,19.48.19.5.39.99.6,1.48l17.87-15.58c-.03-.32-.07-.64-.1-.96-.05-.56-.07-1.16-.07-1.83,0-5.89,2.06-11.63,5.8-16.17l.12-.14c4.8-5.78,11.92-9.11,19.49-9.11,10.3,0,19.5,6.14,23.45,15.64,0,0,0,0,0,.01,6.3-2.55,12.58-5.09,18.88-7.62.42-.18.54-.3.33-.78-.77-1.79-1.67-3.55-2.6-5.29-.08-.15-.18-.3-.27-.42-8.51-13.68-20.79-21.27-36.84-22.76-4.61-.42-9.17,0-13.68,1.07-10.66,2.51-19.42,8.08-26.26,16.65-.2.25-.39.51-.58.77-1.13,1.51-2.16,3.09-3.16,4.7-.06.09-.08.21-.11.3Z"/>
            <path class="cls-8" d="M73.2,40.74l-13.81,12.04c0,.34.02.68.05.99.25,3.58,1.36,7.08,3.21,10.15.39.63.72,1.12,1.03,1.55l18.94-16.51-9.43-8.23Z"/>
            <path class="cls-3" d="M60.44,65.34c-1.93-3.2-3.13-6.77-3.52-10.41l-17.87,15.58c.71,1.64,1.53,3.23,2.38,4.79.07.09.15.21.22.3,1.17,1.99,2.48,3.88,3.91,5.66l.68-.59,15.45-13.48s-.05-.06-.07-.09c-.37-.5-.75-1.06-1.19-1.77Z"/>
            <path class="cls-4" d="M124.27,69.15c-6.18-2.51-12.36-4.99-18.55-7.48,0,0,0,0,0,0-.69,1.72-1.58,3.37-2.66,4.92-4.74,6.86-12.55,10.96-20.89,10.96s-15.7-3.87-20.47-10.36l-15.45,13.48-.68.59c1.46,1.81,3.05,3.52,4.78,5.09,3.67,3.31,7.62,5.94,11.83,7.91,5.67,2.65,11.83,4.09,18.46,4.31,4.81.18,9.54-.45,14.17-1.82,9.05-2.66,16.64-7.63,22.76-14.83.4-.48.8-.97,1.18-1.46,1.26-1.64,2.4-3.38,3.48-5.17.9-1.64,1.76-3.31,2.49-5.05.06-.18.11-.3.15-.39l.06-.15-.06-.23c-.09-.12-.27-.18-.6-.33Z"/>
            <path class="cls-5" d="M82.62,48.96l18.1,15.78.27.23c.93-1.35,1.7-2.8,2.3-4.29,1.1-2.71,1.66-5.58,1.66-8.54,0-.05,0-.1,0-.14l-12.91-11.26-9.43,8.23Z"/>
            <path class="cls-4" d="M82.62,48.96l-18.94,16.51s.04.06.06.08c4.28,5.88,11.17,9.38,18.43,9.38s14.48-3.68,18.74-9.84c.03-.04.05-.08.08-.12l-.27-.23-18.1-15.78Z"/>
          </g>
        </g>
        <g>
          <path class="cls-6" d="M111.33,96.19h-1.06c-.08,0-.13-.06-.13-.13v-.57c0-.07.06-.13.13-.13h3.03c.08,0,.13.06.13.13v.57c0,.07-.06.13-.13.13h-1.06v3.9c0,.07-.06.13-.13.13h-.64c-.07,0-.13-.06-.13-.13v-3.9Z"/>
          <path class="cls-6" d="M115.28,95.39c0-.06.05-.1.12-.1h.11c.06,0,.1.03.12.07l1.53,3.28h.02l1.53-3.28s.05-.07.12-.07h.11c.08,0,.12.05.12.1l.82,4.66c.02.1-.03.16-.12.16h-.63c-.06,0-.12-.06-.13-.1l-.41-2.63h-.02l-1.21,2.73s-.05.08-.12.08h-.12c-.06,0-.1-.03-.12-.08l-1.23-2.73h-.02l-.4,2.63s-.06.1-.12.1h-.62c-.09,0-.15-.06-.13-.16l.83-4.66Z"/>
        </g>
      </g>
    </g>
  </g>
</svg>